<svg xmlns="http://www.w3.org/2000/svg" xmlns:xlink="http://www.w3.org/1999/xlink" width="355.465" height="119.675" viewBox="0 0 94.05 31.664"><defs><clipPath id="A"><path d="M0 595.28h841.89V0H0z"/></clipPath><path id="B" d="M415.44 403.83h.138l-.096 8.817h2.204v-11.021h-3.665l-1.321 8.816h-.125l.096-8.816h-2.204v11.021h3.679z"/></defs><path d="M59.858 12.315l-3.383 3.383V1.88l3.383 3.383z" fill="#5430e1"/><path d="M59.858 12.315l-3.383 3.383h-6.838v-3.383z" fill="#70c6cf"/><path d="M32.577 24.453h-3.383V1.879l3.383.031zm-27.353 0H1.841V8.527h3.383zm13.676 0h-3.383V1.879L18.9 5.262z" fill="#5430e1"/><path d="M18.9 1.88v3.383H8.679l3.383-3.383zm13.677 0v3.383H22.355l3.384-3.383zm10.294 0l3.383 3.383H36.032l3.383-3.383zm3.383 19.19l-3.383 3.383h-3.455l-3.383-3.383z" fill="#70c6cf"/><path d="M25.739 24.453h-3.384V5.262l3.384-3.383zm13.676 0h-3.383V5.262l3.383-3.383zm6.839-3.383l-3.383 3.383V1.879h3.383zm6.766 3.383h-3.383V1.879h3.383zm13.676 0h-3.383V5.262l3.383-3.383z" fill="#5430e1"/><path d="M59.858 5.263H49.637V1.88h10.221zM70.152 1.88l3.383 3.383H63.313l3.383-3.383zm3.383 13.818H63.313v-3.383h10.222zM94.009 1.88v3.383H76.99l3.383-3.383z" fill="#70c6cf"/><path d="M73.535 24.453h-3.383V1.879h3.383zm6.838 0H76.99V5.262l3.383-3.383zm6.838 0h-3.383V1.879h3.383zm6.839 0h-3.383V1.879h3.383z" fill="#5430e1"/><g clip-path="url(#A)" transform="matrix(.35278 0 0 -.35278 -141.576 173.304)"><path d="M414.08 478.48c-1.52-1.514-3.979-1.51-5.492.009s-1.511 3.978.009 5.493 3.978 1.51 5.492-.009 1.511-3.978-.009-5.493m4.35 9.819c-3.904 3.917-10.244 3.928-14.161.024s-3.926-10.243-.023-14.16c.011-.011.022-.021.032-.031l7.037-7.059 7.06 7.037.032.029c3.916 3.904 3.927 10.244.023 14.16" fill="#70c6cf"/><g fill="#5430e1"><path d="M435.52 421.93h-9.59v54.398l9.59 9.59zm-26.74-20.31h-2.205v11.021h2.205z"/><use xlink:href="#B"/><path d="M424.28 403.83h.138l-.096 8.817h2.204v-11.021h-3.665l-1.321 8.816h-.125l.096-8.816h-2.204v11.021h3.679zm6.12-.29h1.584c.138 0 .207.056.207.193v6.751c0 .138-.069.193-.207.193H430.4a.16.16 0 0 1-.193-.193v-6.751a.16.16 0 0 1 .193-.193m-.414 9.189h2.425c1.102 0 1.983-.881 1.983-1.984v-7.272c0-1.103-.881-1.985-1.983-1.985h-2.425c-1.103 0-1.984.882-1.984 1.985v7.272c0 1.103.881 1.984 1.984 1.984m8.704-8.899c.028-.206.098-.317.207-.317h.702c.112 0 .18.111.207.317l1.131 8.817h2.203l-1.735-10.691c-.028-.192-.303-.468-.593-.468h-3.155c-.288 0-.551.234-.592.468l-1.749 10.691h2.259zm9.11 6.35c-.014.192-.098.262-.18.262h-.771c-.097 0-.165-.07-.179-.262l-.552-4.16h2.232zm-1.971-6.364l-.29-2.191h-2.203l1.666 10.553c.042.221.304.469.593.469h3.265c.29 0 .55-.235.592-.469l1.682-10.553h-2.205l-.289 2.191zm5.111 8.834h6.668v-2.205h-2.218v-8.816h-2.204v8.816h-2.246zm9.87-11.03h-2.205v11.021h2.205zm4.5 2.21c.028-.206.098-.317.207-.317h.703c.111 0 .179.111.206.317l1.131 8.817h2.203l-1.735-10.691c-.028-.192-.303-.468-.593-.468h-3.155c-.288 0-.551.234-.591.468l-1.75 10.691h2.259zm11.09 6.61h-3.361v-2.052h2.989v-2.205h-2.989v-2.355h3.361v-2.204h-5.565v11.021h5.565zm8.42-2.09v2.024c0 .153-.056.221-.207.221h-1.722v-2.437h1.736a.16.16 0 0 1 .193.192m2.203 2.396v-2.658c0-1.101-.882-1.983-1.982-1.983h-2.15v-4.478h-2.205v11.022h4.355c1.1 0 1.982-.8 1.982-1.903m3.297-6.916h3.361v-2.204h-5.539v11.021h2.178zm8.13 6.35c-.014.192-.097.262-.179.262h-.772c-.097 0-.165-.07-.179-.262l-.552-4.16H499zm-1.97-6.364l-.29-2.191h-2.204l1.666 10.553c.042.221.305.469.593.469h3.265c.29 0 .551-.235.592-.469l1.682-10.553h-2.205l-.289 2.191zm5.11 8.834h6.668v-2.205h-2.218v-8.816h-2.203v8.816h-2.247zm13.19-2.47h-3.376v-1.378h2.989v-2.203h-2.989v-4.974H509.2v11.022h5.58zm3.18-6.64h1.585c.138 0 .205.056.205.193v6.751c0 .138-.067.193-.205.193h-1.585c-.138 0-.192-.055-.192-.193v-6.751a.16.16 0 0 1 .192-.193m-.413 9.189h2.424c1.102 0 1.984-.881 1.984-1.984v-7.272c0-1.103-.882-1.985-1.984-1.985h-2.424c-1.103 0-1.984.882-1.984 1.985v7.272c0 1.103.881 1.984 1.984 1.984m10.033-3.749v1.446c0 .138-.042.207-.138.207h-1.804v-2.149h1.721c.152.083.221.207.221.496m2.218 2.012v-1.985c0-.716-.441-1.349-1.062-1.626.675-.247 1.158-.895 1.158-1.652v-4.105h-2.205v4.022c0 .344-.095.551-.192.634h-1.859v-4.656h-2.205v11.021h4.711a1.66 1.66 0 0 0 1.654-1.653m6.432-5.552l.771 7.206h3.817l.413-11.021h-2.203l-.277 8.816h-.124l-1.418-8.679h-1.97l-1.419 8.679h-.124l-.289-8.816h-2.204l.426 11.021h3.665zm15.15 4.74h-3.375v-1.378h2.989v-2.203h-2.989v-4.974H545.8v11.022h5.58zm3.19-6.64h1.584c.138 0 .207.056.207.193v6.751c0 .138-.069.193-.207.193h-1.584a.16.16 0 0 1-.193-.193v-6.751a.16.16 0 0 1 .193-.193m-.414 9.189h2.425c1.102 0 1.984-.881 1.984-1.984v-7.272c0-1.103-.882-1.985-1.984-1.985h-2.425c-1.103 0-1.983.882-1.983 1.985v7.272c0 1.103.88 1.984 1.983 1.984m10.024-3.749v1.446c0 .138-.041.207-.138.207h-1.804v-2.149h1.721c.152.083.221.207.221.496m2.218 2.012v-1.985c0-.716-.441-1.349-1.061-1.626.675-.247 1.157-.895 1.157-1.652v-4.105h-2.204v4.022c0 .344-.096.551-.193.634h-1.859v-4.656h-2.205v11.021h4.712a1.66 1.66 0 0 0 1.653-1.653m8.432-.812c-.014.192-.097.262-.179.262h-.771c-.098 0-.166-.07-.18-.262l-.551-4.16h2.232zm-1.97-6.364l-.29-2.191h-2.204l1.667 10.553c.041.221.304.469.593.469h3.265c.29 0 .55-.235.592-.469l1.681-10.553h-2.204l-.289 2.191zm8.63-2.196h-2.205v11.021h2.205zm8.6 8.56c-.015.192-.098.262-.18.262h-.771c-.098 0-.165-.07-.18-.262l-.551-4.16h2.232zm-1.971-6.364l-.29-2.191h-2.203l1.666 10.553c.041.221.304.469.593.469h3.265c.29 0 .55-.235.592-.469l1.681-10.553h-2.204l-.289 2.191zm11.341.014h.137l-.096 8.817h2.204v-11.021h-3.665l-1.321 8.816h-.125l.096-8.816h-2.204v11.021h3.679zm8.06.05v6.503c0 .138-.056.206-.193.206h-1.791v-6.916h1.791c.137 0 .193.069.193.207m2.204 6.86v-7.135c0-1.102-.882-1.984-1.984-1.984h-4.408v11.022h4.408c1.102 0 1.984-.8 1.984-1.903m9.446-5.3l.771 7.206h3.816l.414-11.021h-2.204l-.276 8.816h-.124l-1.418-8.679h-1.971l-1.419 8.679h-.123l-.289-8.816h-2.205l.427 11.021h3.664zm10.38 4.74c-.014.192-.097.262-.179.262h-.772c-.097 0-.165-.07-.179-.262l-.551-4.16h2.232zm-1.97-6.364l-.29-2.191h-2.204l1.667 10.553c.041.221.304.469.593.469h3.264c.29 0 .551-.235.592-.469l1.682-10.553h-2.205l-.288 2.191zm10.49 4.534v2.024c0 .153-.056.221-.207.221h-1.722v-2.437h1.736a.16.16 0 0 1 .193.192m2.204 2.396v-2.658c0-1.101-.882-1.983-1.983-1.983h-2.15v-4.478h-2.205v11.022h4.355c1.101 0 1.983-.8 1.983-1.903m5.256-2.396v2.024c0 .153-.055.221-.207.221h-1.722v-2.437h1.737c.137 0 .192.054.192.192m2.204 2.396v-2.658c0-1.101-.882-1.983-1.983-1.983h-2.15v-4.478h-2.204v11.022h4.354c1.101 0 1.983-.8 1.983-1.903m3.376-9.126h-2.204v11.021h2.204zm6.65 2.21h.138l-.097 8.817h2.204v-11.021h-3.664l-1.322 8.816h-.125l.097-8.816h-2.205v11.021h3.679zm5.71 8.9h2.355c1.102 0 1.984-.882 1.984-1.984v-1.736h-2.204v1.475c0 .138-.07.192-.207.192h-1.515c-.139 0-.192-.054-.192-.192v-6.751c0-.138.053-.193.192-.193h1.515c.137 0 .207.055.207.193v1.847h-1.268v2.204h3.472v-4.312c0-1.102-.882-1.984-1.984-1.984h-2.355c-1.103 0-1.984.882-1.984 1.984v7.273c0 1.102.881 1.984 1.984 1.984"/></g></g></svg>