<?xml version="1.0" encoding="utf-8"?>
<!-- Generator: Adobe Illustrator 21.0.2, SVG Export Plug-In . SVG Version: 6.00 Build 0)  -->
<svg version="1.1" id="Layer_1" xmlns="http://www.w3.org/2000/svg" xmlns:xlink="http://www.w3.org/1999/xlink" x="0px" y="0px"
	 viewBox="0 0 24 24" style="enable-background:new 0 0 24 24;" xml:space="preserve">
<style type="text/css">
	.st0{fill:#FFFFFF;}
</style>
<path class="st0" d="M17.9,8c-1.1,0-2.4,0.1-3.4,0.5c-2.3,0.8-2.8,0.8-5.1,0C8.4,8.1,7.2,8,6.1,8C4.1,8,1.9,8.4,0,8.9v1.8
	c0.8,0.3,1.1,0.6,1.2,1.5C1.6,14.6,2.5,17,6.3,17c3,0,4.1-2.3,4.7-4.3c0.3-1.1,1.7-1.1,2,0c0.7,2.1,1.7,4.4,4.7,4.4
	c3.8,0,4.7-2.4,5.1-4.8c0.1-0.9,0.4-1.2,1.2-1.5V8.9C22.1,8.4,19.9,8,17.9,8z M10.3,11.8C9.7,14,8.9,16,6.3,16c-3.3,0-4-1.9-4.3-5
	c-0.1-0.7,0.1-1,0.2-1.2c0.9-1.1,6-1.1,7.6-0.1C10.3,10,10.6,10.3,10.3,11.8z M22,11c-0.3,3.1-1,5-4.3,5c-2.6,0-3.5-2-4-4.2
	c-0.4-1.5,0-1.8,0.4-2.1c1.7-1,6.7-1,7.6,0.1C21.9,10,22.1,10.3,22,11z M17.2,9.9c1.5-0.2,3.3,0,3.8,0.5c0.1,0.1,0.2,0.4,0.2,1
	c0,0.3-0.1,0.6-0.1,0.9C20.6,10.8,19.6,10,17.2,9.9z M3,12.3c0-0.3-0.1-0.6-0.1-0.9c-0.1-0.6,0.1-0.8,0.2-1c0.5-0.6,2.3-0.8,3.8-0.5
	C4.4,10,3.4,10.8,3,12.3z"/>
</svg>
