<?xml version="1.0" encoding="utf-8"?>
<!-- Generator: Adobe Illustrator 21.0.2, SVG Export Plug-In . SVG Version: 6.00 Build 0)  -->
<svg version="1.1" id="Layer_1" xmlns="http://www.w3.org/2000/svg" xmlns:xlink="http://www.w3.org/1999/xlink" x="0px" y="0px"
	 viewBox="0 0 24 24" style="enable-background:new 0 0 24 24;" xml:space="preserve">
<style type="text/css">
	.st0{fill:#FFFFFF;}
</style>
<path class="st0" d="M15,13.3l-0.9,0.5C11.6,15,7.3,7,9.7,5.6l0.9-0.5L12,7.6L11,8.1c-0.7,0.4,1,3.6,1.7,3.2l0.9-0.5
	C13.7,10.8,15,13.3,15,13.3z M24,11v12H0V11h4V1h10.3C15.9,1,20,5.9,20,7v4H24z M18,7.6c0-1.3-2.3-1.5-3.3-1.2
	C15.2,5.6,15.1,3,13.7,3H6v13h12V7.6z"/>
</svg>
