<?xml version="1.0" encoding="utf-8"?>
<!-- Generator: Adobe Illustrator 21.0.2, SVG Export Plug-In . SVG Version: 6.00 Build 0)  -->
<svg version="1.1" id="Layer_1" xmlns="http://www.w3.org/2000/svg" xmlns:xlink="http://www.w3.org/1999/xlink" x="0px" y="0px"
	 viewBox="0 0 24 24" style="enable-background:new 0 0 24 24;" xml:space="preserve">
<style type="text/css">
	.st0{fill:#FFFFFF;}
</style>
<path class="st0" d="M14,19h-4c-0.3,0-0.5,0.2-0.5,0.5S9.7,20,10,20h4c0.3,0,0.5-0.2,0.5-0.5S14.3,19,14,19z M14,21h-4
	c-0.3,0-0.5,0.2-0.5,0.5S9.7,22,10,22h4c0.3,0,0.5-0.2,0.5-0.5S14.3,21,14,21z M14.3,23H9.8l1.2,0.8c0.2,0.1,0.4,0.2,0.6,0.2h0.9
	c0.2,0,0.5-0.1,0.6-0.2L14.3,23z M18,9.2c0,3.6-3.2,6-3.2,8.8H9.2c0-2.8-3.2-5.2-3.2-8.8c0-3.7,3-5.8,6-5.8C15,3.4,18,5.5,18,9.2z
	 M22,8.5v1.4h-2.5c0-0.2,0-0.4,0-0.7c0-0.2,0-0.5,0-0.7L22,8.5L22,8.5z M11.4,2V0h1.4v2c-0.2,0-0.5,0-0.7,0
	C11.8,1.9,11.6,1.9,11.4,2z M7.6,3.3l-1-1.9l1.2-0.6l1,1.9C8.4,2.8,8,3,7.6,3.3z M18.2,5l1.9-1.4l0.8,1.1l-2.1,1.5
	C18.7,5.8,18.5,5.4,18.2,5z M15.2,2.6l1-1.9l1.2,0.6l-1,1.9C16,3,15.6,2.8,15.2,2.6z M5.1,6.2L3.1,4.7l0.8-1.1L5.8,5
	C5.5,5.4,5.3,5.7,5.1,6.2z M18.8,12.4l2.4,1l-0.5,1.3l-2.4-1C18.4,13.2,18.6,12.8,18.8,12.4z M5.7,13.6l-2.4,1.1l-0.6-1.3l2.3-1.1
	C5.3,12.7,5.5,13.2,5.7,13.6z M4.5,9.9H2V8.5h2.5c0,0.2,0,0.5,0,0.7C4.5,9.4,4.5,9.7,4.5,9.9z"/>
</svg>
