<?xml version="1.0" encoding="utf-8"?>
<!-- Generator: Adobe Illustrator 21.0.2, SVG Export Plug-In . SVG Version: 6.00 Build 0)  -->
<svg version="1.1" id="Layer_1" xmlns="http://www.w3.org/2000/svg" xmlns:xlink="http://www.w3.org/1999/xlink" x="0px" y="0px"
	 viewBox="0 0 40 20" style="enable-background:new 0 0 40 20;" xml:space="preserve">
<style type="text/css">
	.st0{fill:#FFFFFF;}
</style>
<path class="st0" d="M38.5,3h-37C0.7,3,0,2.3,0,1.5v0C0,0.7,0.7,0,1.5,0l37,0C39.3,0,40,0.7,40,1.5v0C40,2.3,39.3,3,38.5,3z"/>
<path class="st0" d="M38.5,11.5h-37C0.7,11.5,0,10.8,0,10v0c0-0.8,0.7-1.5,1.5-1.5h37c0.8,0,1.5,0.7,1.5,1.5v0
	C40,10.8,39.3,11.5,38.5,11.5z"/>
<path class="st0" d="M38.5,20h-37C0.7,20,0,19.3,0,18.5v0C0,17.6,0.7,17,1.5,17h37c0.8,0,1.5,0.7,1.5,1.5v0C40,19.3,39.3,20,38.5,20
	z"/>
</svg>
