<?xml version="1.0" encoding="UTF-8"?>
<svg version="1.1" id="Layer_1" xmlns="http://www.w3.org/2000/svg" xmlns:xlink="http://www.w3.org/1999/xlink" x="0px" y="0px"
	 viewBox="0 0 24 24" style="enable-background:new 0 0 24 24;" xml:space="preserve">
<path d="m12 3.5156c-1.1631 0-2.1094 0.94629-2.1094 2.1094s0.94629 2.1094 2.1094 2.1094 2.1094-0.94628 2.1094-2.1094-0.94629-2.1094-2.1094-2.1094z" fill="#fff"/>
<path d="m12 0c-3.1016 0-5.625 2.5234-5.625 5.625 0 1.0637 0.29864 2.0998 0.86389 2.9965l4.7611 7.5972 4.7611-7.5972c0.56525-0.89667 0.86389-1.9329 0.86389-2.9965 0-3.1016-2.5234-5.625-5.625-5.625zm0 9.1406c-1.9384 0-3.5156-1.5773-3.5156-3.5156s1.5773-3.5156 3.5156-3.5156 3.5156 1.5773 3.5156 3.5156-1.5773 3.5156-3.5156 3.5156z" fill="#fff"/>
<path d="m8.5779 24h6.8417l-0.54071-4.2656h-5.7739z" fill="#fff"/>
<path d="m9.2809 18.328h2.3866l-1.9916-3.1588z" fill="#fff"/>
<path d="m16.117 18.328h5.5395l-1.7578-4.2188h-4.3228z" fill="#fff"/>
<path d="m2.3436 18.328h5.5203l0.52734-4.2188h-4.2898z" fill="#fff"/>
<path d="m12.333 18.328h2.3661l-0.39972-3.1183z" fill="#fff"/>
<path d="m7.688 19.734h-5.9304l-1.7576 4.2656h7.1609z" fill="#fff"/>
<path d="m22.242 19.734h-5.9453l0.54089 4.2656h7.162z" fill="#fff"/>
</svg>
